Patient4_TMGait_0pt7_02_left_49_EMG.mot
version=1
nRows=16
nColumns=33
inDegrees=no
endheader
time	1LAddLong	2LGlutMax	3LGlutMed	4LIliopsoas	5LSemiMemb	6LBicFemLong	7LRecFem	8LVastMed	9LVastLat	10LGasMed	11LTibAnt	12lTibPost	13LPeroneusLong	14LSol	15LExtDigLong	16LFlexDigLong	17RAddLong	18RGlutMax	19RGlutMed	20RIliopsoas	21RSemiMemb	22RBicFemLong	23RRecFem	24RVastMed	25RVastLat	26RGasMed	27RTibAnt	28RTibPost	29RPeroneusLong	30RSol	31RExtDigLong	32RFlexDigLong
56.09	0.013733	1.5001	0.025024	0.031128	-0.00946	-0.011597	0.016632	0.012054	-0.4071	-0.017242	0.27954	0.002289	0.11108	-0.075684	-0.13779	-0.016022	-0.055847	0.074005	0.44723	0.075989	0.03418	-0.017395	-0.064545	0.17364	0.13794	-0.050507	0.030518	-0.020752	-0.047302	0.066986	0.000305	-0.007935
56.091	0.022125	1.4726	-0.007629	0.045624	-0.00473	-0.045471	0.026855	0.013275	-0.35049	-0.013275	0.20554	0.003204	0.13336	-0.11963	-0.13062	-0.028076	-0.038757	0.059357	0.6279	-0.027618	0.20905	-0.41702	-0.075836	0.11414	0.076294	-0.033417	0.031738	-0.024261	-0.12589	0.091095	-0.005341	-0.007324
56.092	0.021057	1.416	-0.026703	0.037842	-0.009613	-0.052643	0.0177	0.004272	-0.31433	-0.026855	-0.046082	-0.007172	0.16144	-0.21179	-0.29938	-0.036774	-0.043335	-0.022736	0.35019	-0.009766	0.04837	-0.63339	-0.031738	0.093384	0.074768	-0.082703	-0.053558	-0.033875	-0.15213	0.14282	0.001068	0.001373
56.093	0.013428	1.411	-0.056915	0.031433	-0.001221	-0.039215	0.035248	0.001831	-0.27847	-0.012665	0.082092	0.002594	0.10391	-0.25131	-0.031891	-0.024109	-0.007782	-0.058289	0.26642	-0.093536	-0.011902	-0.50384	-0.046234	0.049591	0.070343	-0.067749	-0.050964	-0.04425	-0.087738	0.22858	0.003052	-0.000916
56.094	0.014496	1.3814	-0.058136	0.011444	-0.006714	-0.027618	0.00412	0.012665	-0.2301	0.030975	0.026245	0.003662	0.056152	-0.2533	-0.080872	-0.035706	0.022888	-0.041962	0.034637	-0.09079	0.13901	-0.27054	0.033875	-0.041656	0.056152	0.036774	-0.007935	-0.027771	-0.14603	0.17502	-0.003815	-0.009003
56.095	0.013885	1.3652	-0.026245	-0.014038	-0.010834	0.000305	0.00946	0.003204	-0.16953	0.035095	0.12558	-0.000763	0.057373	-0.18967	-0.086517	-0.04303	0.045929	-0.002136	0.25345	-0.098724	0.040436	0.032806	0.089264	-0.10391	0.026093	0.060425	0.021362	0.049438	-0.32593	0.10651	-0.003357	-0.006561
56.096	0.014496	1.2607	-0.018768	-0.026398	-0.013123	-0.011597	0.027771	0.011139	-0.10407	0.016632	0.14938	-0.001678	0.083771	-0.087585	-0.097961	-0.043182	0.028687	0.011139	0.14786	-0.017242	-0.17334	0.40222	0.13534	-0.14175	-0.014648	0.018768	0.008392	0.016174	-0.19333	0.14923	-0.00351	-0.002136
56.097	0.019836	1.2581	-0.029449	-0.020599	-0.016022	0.008545	0.026398	0.018768	-0.041199	0.016785	0.14496	-0.002441	0.037384	-0.18555	1.1948	-0.044708	-0.025482	0.048218	-0.26962	-0.01358	-0.29831	0.39139	0.089569	-0.14771	-0.076599	0.010071	-0.035095	0.033417	-0.19226	0.17212	-0.005341	-0.002594
56.098	0.009613	1.1624	-0.024261	0	-0.010071	-0.015411	0.02121	0.000305	0.00885	0.013123	-0.1181	0.009003	0.025787	-0.15381	-0.083466	-0.031433	-0.033569	-0.030975	0.14816	0.024872	-0.17502	0.19363	0.10162	-0.059967	-0.18967	0.041504	-0.052795	0.000763	0.52155	0.29984	-0.000916	-0.006104
56.099	0.022278	1.1372	-0.029907	0.005341	-0.007477	-0.003204	0.021973	0.012054	0.057983	-0.010834	-0.062714	0.001373	0.057373	-0.043488	0.11551	-0.03952	0.013428	-0.00824	-0.059052	0.0383	-0.013428	0.096436	0.10315	-0.10819	-0.19638	-0.016632	-0.036469	-0.11444	0.53497	0.35782	0.000305	-0.00412
56.1	0.008087	1.0936	-0.014648	-0.001221	-0.003204	-0.002594	0.023804	0.019684	0.092316	-0.011444	0.13718	-0.005646	0.046539	0.017395	-0.33615	-0.042572	0.026855	-0.03006	0.39459	-0.01709	0.059357	0.0383	0.24933	-0.086823	-0.16876	-0.028076	-0.039673	-0.24002	-0.052948	0.30991	-0.003052	-0.009003
56.101	0.018463	1.0034	-0.016937	0.00946	-0.007324	-0.045319	0.011902	0.007782	0.121	-0.01236	-0.2655	0.005188	0.070343	0.007477	-0.10803	-0.047913	0.006866	-0.017853	0.60699	-0.082855	0.068207	0.033722	0.37827	-0.1297	-0.21469	-0.007324	-0.11215	0.24902	-0.21851	0.22049	-0.004883	0.00061
56.102	0.010986	0.96619	-0.026093	-0.004425	-0.011292	-0.028687	0.016174	0.006714	0.14664	-0.00824	-0.27512	-0.003967	0.048981	0.056763	-0.11337	-0.035553	0.003967	-0.12009	-0.03891	-0.049286	-0.002136	0.044098	0.56458	-0.15045	-0.28137	-0.005035	0.010986	0.066071	-1.1035	0.037079	-0.005035	0.001526
56.103	0.004425	0.86502	-0.016174	0.009003	-0.009613	-0.036926	0.018616	0.00412	0.15411	-0.007629	-0.009003	-0.005951	0.013885	0.040894	0.14053	-0.030823	-0.007935	-0.083313	0.056458	-0.040131	-0.14023	0.15228	0.49622	-0.20828	-0.28503	-0.008087	0.1535	0.016479	0.048065	-0.24612	-0.002136	-0.010223
56.104	0.014343	0.83832	-0.014191	0.015259	-0.01358	-0.041809	0.0177	0.013275	0.17838	0.008392	0.12894	0.000305	0.052795	-0.009918	0.55527	-0.026398	-0.016785	-0.054474	-0.11414	-0.05249	-0.066986	0.062408	-0.042114	-0.15839	-0.05722	-0.022278	0.19241	0.013885	1.7502	-0.21881	0	-0.016479
56.105	0.014954	0.78735	-0.014801	0.03006	-0.017853	-0.03006	0.044556	-0.002136	0.19501	0.022278	0.1236	-0.014496	0.035553	0.014648	0.22598	-0.024719	-0.023651	-0.015411	-0.26855	-0.15839	0.071259	0.049744	-0.53131	0.11704	0.31372	-0.019073	0.095673	0.007935	1.5468	-0.26581	-0.001373	-0.012207
